<?xml version="1.0" standalone="no"?>
<!DOCTYPE svg PUBLIC "-//W3C//DTD SVG 20010904//EN"
 "http://www.w3.org/TR/2001/REC-SVG-20010904/DTD/svg10.dtd">
<svg version="1.0" xmlns="http://www.w3.org/2000/svg"
 width="512.000000pt" height="512.000000pt" viewBox="0 0 512.000000 512.000000"
 preserveAspectRatio="xMidYMid meet">
<metadata>
Created by potrace 1.14, written by Peter Selinger 2001-2017
</metadata>
<g transform="translate(0.000000,512.000000) scale(0.100000,-0.100000)"
fill="#000000" stroke="none">
<path d="M1223 4209 c-147 -32 -305 -127 -458 -275 -66 -64 -172 -189 -210
-246 -5 -8 -35 -53 -66 -100 -69 -104 -172 -308 -226 -448 -37 -95 -90 -252
-98 -290 -2 -8 -8 -35 -15 -60 -7 -25 -13 -49 -14 -55 -1 -5 -5 -23 -9 -40
-11 -52 -18 -86 -46 -255 -46 -266 -55 -375 -55 -650 1 -328 26 -482 109 -655
130 -270 356 -329 675 -177 63 31 120 62 130 72 3 3 32 23 65 45 65 44 164
140 409 398 209 220 288 272 446 292 403 53 646 59 1120 30 70 -4 150 -12 190
-20 14 -2 41 -7 60 -9 194 -29 267 -80 544 -380 224 -243 307 -315 466 -403
113 -62 270 -111 345 -107 137 8 219 43 293 122 65 69 144 241 156 338 2 16 9
47 14 69 16 64 35 267 35 385 0 63 -9 216 -18 310 -10 98 -15 146 -20 170 -2
14 -6 45 -9 70 -3 25 -7 54 -10 65 -2 11 -6 41 -10 66 -10 70 -16 101 -27 142
-6 21 -12 50 -14 65 -5 35 -10 57 -25 112 -7 25 -13 50 -14 55 -8 41 -76 240
-113 330 -149 365 -373 685 -598 855 -33 25 -62 47 -65 50 -32 32 -213 116
-295 137 -38 9 -220 9 -232 0 -7 -5 -13 -7 -13 -4 0 7 -107 -18 -182 -44 -62
-21 -87 -31 -223 -94 -224 -103 -290 -132 -325 -140 -3 -1 -25 -7 -50 -14 -25
-7 -46 -13 -47 -13 -2 1 -17 -4 -35 -9 -66 -19 -172 -26 -303 -19 -42 2 -172
29 -220 45 -65 22 -203 79 -305 127 -52 25 -121 57 -152 71 -68 31 -198 74
-248 82 -19 3 -48 8 -65 11 -61 13 -163 10 -242 -7z m39 -381 c33 -8 104 -60
127 -94 41 -60 57 -128 60 -254 l2 -115 -110 0 -111 0 -1 90 c0 49 -2 99 -4
110 -6 31 -27 65 -42 66 -7 1 -19 2 -25 3 -23 4 -49 -15 -59 -42 -10 -25 -17
-733 -9 -897 3 -70 27 -105 72 -105 53 0 63 32 66 227 l4 173 -24 1 c-12 1
-31 1 -40 0 -16 -2 -18 9 -18 98 0 74 3 101 13 102 6 1 74 2 150 3 l137 1 -2
-400 -3 -400 -52 -1 -53 -2 -12 39 c-6 22 -13 39 -15 39 -3 0 -23 -15 -44 -34
-92 -78 -247 -65 -324 26 -32 38 -61 98 -71 148 -13 68 -11 920 3 995 21 112
82 190 178 223 27 9 165 9 207 0z m910 -68 c4 -30 9 -80 13 -110 3 -30 8 -68
10 -85 2 -16 7 -58 10 -92 3 -34 8 -72 11 -85 6 -29 16 -108 16 -128 0 -8 4
-42 9 -75 4 -33 10 -80 13 -105 3 -25 8 -65 11 -90 10 -82 13 -104 20 -170 4
-36 9 -73 10 -82 2 -9 7 -48 10 -85 4 -37 8 -75 10 -83 7 -25 18 -138 16 -155
-1 -11 -205 -15 -215 -4 -3 3 -8 32 -11 65 -12 153 -17 199 -21 206 -8 12
-164 7 -165 -6 0 -6 -2 -20 -4 -31 -2 -11 -7 -56 -10 -100 -3 -44 -8 -89 -10
-100 -2 -11 -4 -25 -4 -30 -1 -6 -45 -10 -112 -11 l-111 0 7 54 c4 30 8 64 10
76 10 60 42 293 50 356 2 25 7 54 9 66 2 11 7 45 10 75 3 30 8 63 10 75 2 12
7 45 11 75 3 30 8 65 10 79 5 30 14 93 21 146 3 22 7 55 9 74 2 19 8 64 14
100 5 36 13 88 16 115 3 28 8 59 10 70 2 11 4 28 4 38 1 16 13 17 154 15 l152
-3 7 -55z m689 33 c0 -16 2 -37 4 -48 2 -11 7 -42 10 -70 3 -27 8 -61 10 -75
1 -14 6 -50 9 -80 4 -30 9 -62 11 -70 2 -8 7 -36 10 -62 3 -26 10 -80 15 -120
6 -40 13 -98 17 -128 3 -30 7 -62 9 -70 1 -8 3 -24 3 -34 1 -11 4 -16 8 -12 8
8 9 10 17 96 3 36 8 76 11 90 3 14 7 43 10 65 3 22 7 49 9 60 3 18 9 51 21
135 6 35 16 110 19 140 2 14 6 41 10 60 3 19 8 49 11 65 2 17 7 42 11 58 l6
27 124 0 124 0 1 -32 c0 -18 2 -85 4 -148 4 -123 15 -491 20 -705 2 -71 6
-219 9 -327 4 -109 3 -198 -1 -199 -5 -1 -54 -2 -110 -3 -88 -2 -103 -1 -104
13 -3 58 1 891 5 956 7 120 -10 73 -30 -78 -5 -39 -14 -99 -18 -122 -2 -11 -7
-42 -10 -70 -4 -27 -8 -61 -11 -75 -9 -47 -14 -85 -20 -135 -3 -27 -8 -57 -10
-65 -4 -15 -13 -74 -20 -139 -2 -18 -6 -36 -9 -39 -3 -2 -35 -5 -72 -6 -75 -1
-79 2 -89 80 -4 27 -8 59 -10 70 -2 12 -7 48 -10 80 -4 33 -9 68 -11 79 -2 11
-6 40 -9 65 -3 25 -8 55 -10 67 -3 12 -7 41 -10 65 -5 44 -13 103 -20 148 -2
14 -7 53 -10 88 -10 87 -18 70 -15 -30 4 -148 6 -923 2 -939 -3 -12 -22 -15
-112 -15 l-109 0 5 95 c4 101 12 326 19 551 2 74 6 191 9 260 3 69 9 204 12
300 4 96 7 183 8 193 0 15 13 17 128 17 l128 0 1 -27z m1240 20 c0 -5 1 -50 2
-102 2 -66 -2 -95 -10 -98 -7 -3 -54 -6 -105 -7 l-93 -1 0 -190 0 -190 82 -1
c46 -1 88 -4 95 -7 12 -4 14 -44 9 -184 -1 -22 -4 -23 -96 -23 l-95 0 0 -195
0 -195 23 -1 c12 -1 61 -2 110 -2 53 -1 87 -5 88 -12 1 -16 1 -168 0 -185 -1
-13 -33 -15 -221 -15 l-220 -1 0 211 c-1 226 -1 1185 0 1198 0 4 97 7 215 7
118 0 215 -3 216 -7z m-2081 -1462 c3 0 4 -41 3 -90 l-2 -89 77 1 77 2 2 79
c1 44 4 85 7 91 2 7 27 11 62 10 l59 -1 2 -250 1 -250 -58 1 c-32 0 -62 3 -66
8 -4 4 -7 47 -6 96 1 62 -2 90 -11 93 -7 2 -41 4 -77 3 l-65 0 -2 -85 c-1 -47
-2 -92 -2 -100 -1 -12 -13 -15 -58 -14 -32 1 -61 2 -65 3 -9 2 -6 485 3 491 7
5 103 6 119 1z m506 -163 c0 -173 9 -217 43 -219 9 -1 27 -3 39 -4 14 -1 34 8
48 22 24 24 24 29 23 161 0 75 -1 153 0 173 l1 35 53 -2 c28 -1 55 -3 60 -3 4
-1 7 -83 7 -183 0 -207 -6 -228 -73 -282 -36 -29 -44 -31 -121 -31 -73 0 -87
3 -124 27 -70 47 -75 67 -77 278 -1 102 2 187 7 190 4 3 31 5 60 5 l53 -1 1
-166z m630 158 c84 -19 131 -125 90 -207 -12 -23 -12 -30 -2 -36 8 -5 20 -22
29 -39 32 -63 -6 -170 -71 -196 -25 -10 -274 -19 -297 -11 -8 2 -13 426 -6
488 1 11 208 12 257 1z m1471 -417 c68 -22 112 -129 83 -200 -23 -54 -106 -94
-185 -89 -56 4 -65 6 -89 26 -52 43 -58 92 -22 170 19 42 33 55 72 75 57 28
96 33 141 18z m-3883 -14 c136 -19 229 -143 243 -320 6 -88 -17 -147 -84 -212
-79 -78 -165 -108 -303 -107 -114 1 -183 25 -241 85 -67 68 -80 131 -54 254 9
43 60 146 87 176 58 65 245 147 303 132 6 -1 28 -5 49 -8z m3546 -285 c48 -14
82 -66 88 -136 4 -44 0 -64 -23 -110 -28 -57 -65 -84 -116 -84 -31 0 -104 45
-127 78 -28 39 -41 110 -28 152 30 95 101 130 206 100z m449 -88 c60 -36 86
-87 72 -139 -12 -45 -74 -110 -117 -122 -109 -30 -219 33 -217 127 1 60 13 95
41 125 50 53 143 56 221 9z"/>
<path d="M1994 3538 c-1 -50 -13 -212 -19 -248 -2 -14 -7 -61 -11 -105 -3 -44
-7 -91 -9 -105 -1 -14 -6 -60 -10 -102 l-7 -78 66 0 c37 0 65 3 63 8 -3 4 -8
41 -11 82 -7 71 -10 105 -21 203 -2 23 -7 74 -11 112 -3 39 -8 86 -9 105 -2
19 -4 65 -4 103 -1 72 -16 95 -17 25z"/>
<path d="M3020 2200 c0 -34 3 -38 30 -42 34 -5 90 18 90 38 0 27 -31 44 -76
42 -44 -1 -44 -1 -44 -38z"/>
<path d="M3048 2052 c-25 -3 -28 -7 -28 -43 0 -33 3 -39 23 -40 91 -4 124 12
113 54 -5 20 -13 26 -43 28 -21 2 -50 3 -65 1z"/>
<path d="M831 1713 c0 -7 -2 -16 -2 -20 -1 -5 -35 -41 -76 -82 -45 -46 -72
-80 -68 -89 3 -8 0 -12 -7 -9 -7 2 -12 9 -11 15 1 5 -5 16 -15 24 -15 12 -16
11 -3 -4 16 -22 -1 -24 -19 -3 -7 8 -18 15 -24 15 -6 0 3 -13 20 -28 16 -16
28 -34 26 -42 -3 -8 0 -10 9 -5 11 6 12 5 2 -6 -18 -18 -16 -34 2 -19 12 10
18 10 30 0 8 -6 19 -9 24 -6 5 4 13 1 17 -5 5 -8 3 -9 -6 -4 -8 5 -11 4 -6 -3
3 -6 20 -9 36 -7 17 2 30 1 30 -3 0 -12 67 -45 82 -40 7 3 -3 12 -24 22 -21
10 -38 22 -38 27 0 5 -6 9 -13 9 -6 0 -25 14 -42 31 l-29 32 22 17 c12 10 22
25 22 33 0 8 7 20 15 27 12 10 13 15 4 21 -8 5 -1 16 21 36 24 21 31 35 27 53
-2 14 -5 19 -6 13z"/>
<path d="M485 1701 c-8 -14 10 -38 34 -46 10 -3 23 -17 30 -31 6 -15 14 -24
18 -21 3 4 1 13 -5 20 -7 8 -10 16 -8 18 2 2 -11 19 -29 38 -22 22 -35 30 -40
22z"/>
<path d="M610 1580 c0 -5 5 -10 11 -10 5 0 7 5 4 10 -3 6 -8 10 -11 10 -2 0
-4 -4 -4 -10z"/>
<path d="M576 1413 c-4 -5 -11 -8 -15 -8 -3 0 -22 -12 -41 -27 -30 -23 -32
-28 -17 -34 13 -4 23 0 34 16 8 12 29 30 47 41 18 11 24 19 15 19 -9 0 -19 -3
-23 -7z"/>
</g>
</svg>
